<?xml version="1.0" encoding="utf-8"?>
<?xml-stylesheet type="text/xsl" href="rss1.xsl"?>
<rss version="2.0" xmlns:atom="http://www.w3.org/2005/Atom" xmlns:content="http://purl.org/rss/1.0/modules/content/" xmlns:dc="http://purl.org/dc/elements/1.1/" xmlns:media="http://search.yahoo.com/mrss/">
<channel>
 <title>Getty</title>
 <link>http://www.gettyimg.com/</link>
 <atom:link href="http://www.gettyimg.com/" rel="self" type="application/rss+xml" />

 
                <item>
                <title><![CDATA[【UPSCALED】BLACKPINK - How You Like That [4K AI Upscale HEVC 10-bit | PCM 24-bit 48 kHz | DD+ Dolby Atmos]]]></title>
                <link><![CDATA[https://sharemania.us/threads/blackpink-how-you-like-that-4k-ai-upscale-hevc-10-bit-pcm-24-bit-48-khz-dd-dolby-atmos.223055/]]></link>
                <description><![CDATA[<article>
<blockquote class="messageText SelectQuoteContainer ugc baseHtml">
<b><img src="https://images2.imgbox.com/cc/c4/HToa1rZQ_o.jpg" class="bbCodeImage LbImage" alt="[​IMG]" data-url="https://images2.imgbox.com/cc/c4/HToa1rZQ_o.jpg" style=""> <br>
<br>
Genre: <span style="color: #0059b3">Electronic, Hip Hop, Pop</span> <br>
Style: <span style="color: #0059b3">K-pop, Dance-pop, Pop Rap, Hip Hop</span><br>
<b>Released:</b> <span style="color: #0059b3">June 26, 2020</span><br>
Video Source: <span style="color: #0059b3">Master, ProRes 1080p</span><br>
Audio Source: <span style="color: #0059b3">Qobuz &amp; Apple Music, thanks SonMaxime</span></b><br>
<br>
"<b>How You Like That</b>" is a song recorded in Korean and Japanese by South Korean girl group Blackpink. It was released on June 26, 2020, through YG Entertainment, YG Plus and Interscope Records, as the pre-release single from the group's first Korean-language studio album, <i>The Album</i> (2020). An EDM, hip hop, trap, club and pop song, it was co-written by Danny Chung, R. Tee, 24, and Teddy Park, while the latter produced the song.<br>
<br>
"How You Like That" was a commercial success in South Korea and peaked at number one on the Gaon Digital Chart for three weeks, marking Blackpink's third number-one single in the country. The song also topped the national charts in Hungary, Singapore, and Malaysia as well as <i>Billboard</i>'s K-pop Hot 100 and World Digital Songs charts, and figured within the record charts in 26 other countries. The song was certified platinum in South Korea and Japan for streaming as well as gold in Canada and silver in the United Kingdom, while the physical version was also certified platinum in South Korea for surpassing 250,000 units sold.<br>
<br>
The accompanying music video for the song was directed by Seo Hyun-seung and uploaded onto Blackpink's YouTube channel simultaneously with the single's release. Upon release, the music video broke several YouTube records, including for the most-watched premiere, the most views within 24 hours for a music video - accumulating 86.3 million views in that time - and for the fastest to surpass 100 million and 200 million views. It also became one of the most-liked videos on YouTube with over 20 million likes. "How You Like That" won numerous accolades, including Song of Summer at the 2020 MTV Video Music Awards and Best Dance Award for a female group at both the 2020 Melon Music Awards and Mnet Asian Music Awards in Seoul.<br>
<br>
<b>Release Info</b><br>
The video track is upscaled to 4K with Topaz Video AI and encoded to HEVC 10-bit.<br>
The PCM track is lossless (Qobuz, 24-bit 48 kHz), synced with Adobe Audition.<br>
The Dolby Atmos track is lossy (Dolby Digital Plus), synced by muxing.<br>
The timed lyrics are synced and edited to match the music video.<br>
Enable the subtitles to see the lyrics (Romanized + English).<br>
<br>
<div class="ToggleTriggerAnchor bbCodeSpoilerContainer">
<button type="button" class="button bbCodeSpoilerButton ToggleTrigger Tooltip JsOnly" data-target="> .SpoilerTarget"><span>Spoiler: <span class="SpoilerTitle">Media Info</span></span></button>
<div class="SpoilerTarget bbCodeSpoilerText">
<div class="bbCodeBlock bbCodeCode">
<div class="type">Code:</div>
<pre>General
Unique ID                      : 28323356201490195688101949187178591729 (0x154EE146979241552D539E90A18B75F1)
Complete name                  : BLACKPINK - How You Like That.mkv
Format                         : Matroska
Format version                 : Version 4 / Version 2
File size                      : 490 MiB
Duration                       : 3 min 2 s
Overall bit rate               : 22.5 Mb/s
Frame rate                     : 23.976 FPS
Encoded date                   : 2023-06-20 15:03:25 UTC
Writing application            : mkvmerge v76.0 ('Celebration') 64-bit
Writing library                : libebml v1.4.4 + libmatroska v1.7.1

Video
ID                             : 1
Format                         : HEVC
Format/Info                    : High Efficiency Video Coding
Format profile                 : Main 10@L5@Main
Codec ID                       : V_MPEGH/ISO/HEVC
Duration                       : 3 min 2 s
Bit rate                       : 19.5 Mb/s
Width                          : 3 840 pixels
Height                         : 2 160 pixels
Display aspect ratio           : 16:9
Frame rate mode                : Constant
Frame rate                     : 23.976 (24000/1001) FPS
Color space                    : YUV
Chroma subsampling             : 4:2:0
Bit depth                      : 10 bits
Bits/(Pixel*Frame)             : 0.098
Stream size                    : 423 MiB (86%)
Language                       : English
Default                        : Yes
Forced                         : No
Color range                    : Limited
Color primaries                : BT.709
Transfer characteristics       : BT.709
Matrix coefficients            : BT.709

Audio #1
ID                             : 2
Format                         : PCM
Format settings                : Little / Signed
Codec ID                       : A_PCM/INT/LIT
Duration                       : 3 min 2 s
Bit rate mode                  : Constant
Bit rate                       : 2 304 kb/s
Channel(s)                     : 2 channels
Sampling rate                  : 48.0 kHz
Frame rate                     : 25.001 FPS (1920 SPF)
Bit depth                      : 24 bits
Stream size                    : 50.1 MiB (10%)
Title                          : 24-bit 48 kHz
Language                       : English
Default                        : Yes
Forced                         : No

Audio #2
ID                             : 3
Format                         : E-AC-3 JOC
Format/Info                    : Enhanced AC-3 with Joint Object Coding
Commercial name                : Dolby Digital Plus with Dolby Atmos
Codec ID                       : A_EAC3
Duration                       : 3 min 0 s
Bit rate mode                  : Constant
Bit rate                       : 768 kb/s
Channel(s)                     : 6 channels
Channel layout                 : L R C LFE Ls Rs
Sampling rate                  : 48.0 kHz
Frame rate                     : 31.250 FPS (1536 SPF)
Compression mode               : Lossy
Delay relative to video        : 24 ms
Stream size                    : 16.6 MiB (3%)
Title                          : Dolby Digital Plus with Dolby Atmos
Language                       : English
Service kind                   : Complete Main
Default                        : No
Forced                         : No
Complexity index               : 16
Number of dynamic objects      : 15
Bed channel count              : 1 channel
Bed channel configuration      : LFE

Text
ID                             : 4
Format                         : UTF-8
Codec ID                       : S_TEXT/UTF8
Codec ID/Info                  : UTF-8 Plain Text
Duration                       : 2 min 47 s
Bit rate                       : 97 b/s
Frame rate                     : 0.387 FPS
Count of elements              : 65
Stream size                    : 1.99 KiB (0%)
Title                          : Lyrics
Language                       : English
Default                        : No
Forced                         : No
</pre>
</div></div>
</div><br>
<div class="bbCodeBlock bbCodeVfcHH HiddenContent">
<div class="attribution type">Hidden Content:</div>
<blockquote>You must reply before you can see the hidden data contained here.</blockquote>
</div>
<div class="messageTextEndMarker">&nbsp;</div>
</blockquote>
</article>]]></description>
                <author><![CDATA[ADHDerby]]></author>
                </item>

                </channel></rss>